<?xml version="1.0" encoding="UTF-8" standalone="no"?>
<svg
   xmlns:dc="http://purl.org/dc/elements/1.1/"
   xmlns:cc="http://creativecommons.org/ns#"
   xmlns:rdf="http://www.w3.org/1999/02/22-rdf-syntax-ns#"
   xmlns:svg="http://www.w3.org/2000/svg"
   xmlns="http://www.w3.org/2000/svg"
   xmlns:sodipodi="http://sodipodi.sourceforge.net/DTD/sodipodi-0.dtd"
   xmlns:inkscape="http://www.inkscape.org/namespaces/inkscape"
   version="1.0"
   width="256"
   height="224"
   viewBox="0 0 45.59542 333.60897"
   id="svg2"
   xml:space="preserve"
   style="fill-rule:evenodd"
   inkscape:version="0.48.1 "
   sodipodi:docname="gb-border.svg"
   inkscape:export-filename="C:\Users\Isaac\Desktop\gb-border.png"
   inkscape:export-xdpi="90"
   inkscape:export-ydpi="90"><sodipodi:namedview
   pagecolor="#ffffff"
   bordercolor="#666666"
   borderopacity="1"
   objecttolerance="10"
   gridtolerance="10"
   guidetolerance="10"
   inkscape:pageopacity="0"
   inkscape:pageshadow="2"
   inkscape:window-width="1366"
   inkscape:window-height="721"
   id="namedview3016"
   showgrid="false"
   fit-margin-top="0"
   fit-margin-left="0"
   fit-margin-right="0"
   fit-margin-bottom="0"
   inkscape:zoom="1.4142136"
   inkscape:cx="120.8315"
   inkscape:cy="134.19606"
   inkscape:window-x="-4"
   inkscape:window-y="-4"
   inkscape:window-maximized="1"
   inkscape:current-layer="svg2" /><metadata
   id="metadata38"><rdf:RDF><cc:Work
       rdf:about=""><dc:format>image/svg+xml</dc:format><dc:type
         rdf:resource="http://purl.org/dc/dcmitype/StillImage" /><dc:title></dc:title></cc:Work></rdf:RDF></metadata>
 <defs
   id="defs4"><style
     type="text/css"
     id="style6" /></defs>
 <path
   style="fill:#c8b8c8;fill-opacity:1;fill-rule:nonzero;stroke:none"
   d="M 0 -16 L 0 240 L 256 240 L 256 -16 L 0 -16 z M 48 40 L 209.125 40 L 209.125 184 L 48 184 L 48 40 z "
   transform="matrix(1.4893258,0,0,1.4893258,-167.83599,0)"
   id="rect3864" /><path
   style="fill:#151524;fill-opacity:1;fill-rule:nonzero;stroke:#42425b;stroke-width:1;stroke-opacity:1"
   d="M 18.25 16.5 C 12.298307 16.5 7.5 21.298314 7.5 27.25 L 7.5 183.75 C 7.5 189.70169 12.298307 194.5 18.25 194.5 L 209.46875 194.5 C 209.47412 194.33081 209.5 194.17051 209.5 194 L 209.5 193.9375 C 230.66389 192.89721 247.5 175.42193 247.5 154 C 247.5 153.66527 247.47687 153.33276 247.46875 153 L 247.5 153 L 247.5 27.25 C 247.5 21.298314 242.70169 16.5 236.75 16.5 L 18.25 16.5 z M 48 40 L 209.125 40 L 209.125 184 L 48 184 L 48 40 z "
   id="path3856"
   transform="matrix(1.4893258,0,0,1.4893258,-167.83599,0)" /><g
   transform="matrix(0.07804903,0,0,0.07804903,1.5050788,293.90613)"
   id="Camada_x0020_1"
   style="fill:#060188;fill-opacity:1">
  <g
   id="_42677040"
   style="fill:#060188;fill-opacity:1">
   
   
   
   
   
   
   
   
   
   
   
   
   
   
   
   
   
   
   
   <polygon
   points="124.808,141.028 121.173,146.683 120.583,151.095 118.253,151.095 118.936,146.061 116.606,141.028 116.606,141.028 119.123,141.028 120.366,143.887 122.23,141.028 "
   transform="matrix(28.28179,0,0,28.28179,-2436.46,-3792.32)"
   id="_43443024"
   style="fill:#060188;fill-opacity:1" />
   <polygon
   points="92.2477,151.095 98.0884,151.095 98.0884,151.095 98.3992,148.857 94.8576,148.857 95.075,147.118 98.1505,147.118 98.4614,144.881 95.4168,144.881 95.6343,143.265 99.1759,143.265 99.5176,141.028 93.6458,141.028 "
   transform="matrix(28.28179,0,0,28.28179,-2436.46,-3792.32)"
   id="_43441624"
   style="fill:#060188;fill-opacity:1" />
   <path
   d="m -253.70213,340.30039 21.96931,-58.86572 7.03085,58.86572 -29.00016,0 0,0 z m -23.72558,56.24117 59.75094,0 10.54624,84.35607 108.07888,0 50.087031,-154.65045 24.605153,154.65045 57.117904,0 63.266615,-163.43194 10.543447,163.43194 63.26637,0 -17.57149,-284.69576 -75.572023,0 -58.871353,150.24981 -22.848867,-150.24981 -67.658511,0 -77.325226,233.732 -29.00016,-233.732 -84.35609,0 -94.01996,236.36502 12.29974,-92.2665 -114.23013,0 -7.91041,56.24117 50.08704,0 -3.51545,19.33057 c -8.78428,5.26892 -28.99448,6.15131 -36.90487,6.15131 -7.90759,0 -66.77924,-5.27173 -64.14311,-68.5381 2.63586,-63.2635 86.99198,-122.13489 187.16323,-89.62216 l 9.6667,-60.63047 c -66.78177,-22.84885 -242.18003,-10.06267 -260.09938,146.73722 -10.54061,92.26366 73.81575,136.20226 130.04843,135.32268 32.51274,1.75628 69.41764,-10.54629 82.59975,-17.57712 l -4.39497,13.18214 66.78461,0 32.50992,-84.35607 0,0 z"
   id="_43775888"
   style="fill:#060188;fill-opacity:1"
   inkscape:connector-curvature="0" />
   <path
   d="M 790.18169,193.57448 C 744.48681,191.81817 678.58461,218.1768 656.62096,324.50219 634.6517,430.81625 693.52588,473.87527 748.00224,480.90612 802.48711,487.93413 878.92996,453.66511 892.9917,351.73755 907.05054,249.80717 856.96347,196.21319 790.18169,193.57448 z m -7.02801,60.63048 c 18.45105,0 57.99182,12.30256 48.32511,86.10675 -9.66108,73.81262 -55.35596,82.59976 -72.05071,80.84064 -16.69757,-1.7563 -50.96659,-13.17648 -41.2999,-80.84064 9.66956,-67.65288 45.69208,-86.98629 65.0255,-86.10675 l 0,0 z"
   id="_44102912"
   style="fill:#060188;fill-opacity:1"
   inkscape:connector-curvature="0" />
   <path
   d="m 512.51112,305.17441 36.90491,0 c 27.24386,0 32.50993,-17.57147 33.38947,-24.5995 0.87958,-7.0337 -7.02518,-21.09254 -21.0869,-21.09254 l -43.05618,-0.003 -6.1513,45.69488 z m -15.818,112.46817 50.08989,0 c 27.24101,0 33.38663,-21.08689 34.26621,-28.11774 0.87955,-7.02804 -7.02803,-21.0869 -21.0869,-21.0869 l -56.23553,0 -7.03367,49.20464 0,0 z m -73.80695,63.26918 39.54073,-284.69577 121.25818,0 c 29.00014,0 71.17676,33.39231 65.90505,78.20481 -5.27173,44.8153 -19.33345,47.45116 -29.00016,54.4792 14.94127,13.17364 29.8797,34.26622 23.72843,73.80698 -6.15411,39.54075 -38.66402,78.20478 -95.78195,78.20478 l -125.65028,0 0,0 z"
   id="_44104296"
   style="fill:#060188;fill-opacity:1"
   inkscape:connector-curvature="0" />
   <path
   d="m 1009.4786,437.84426 c -10.84322,0 -19.59354,8.74189 -19.59354,19.52858 0,10.8998 8.74759,19.64452 19.59074,19.64452 10.7866,0 19.5286,-8.74472 19.5286,-19.64452 0,-10.78949 -8.7447,-19.52858 -19.5286,-19.52858 l 0,-2.68678 c 12.2941,0 22.2069,9.97218 22.2069,22.21536 0,12.35632 -9.9128,22.32566 -22.2097,22.32566 -12.35909,-0.003 -22.33133,-9.96934 -22.33133,-22.32566 0.003,-12.24603 9.97224,-22.21251 22.33133,-22.21251 l 0,2.68393 0,0 z"
   id="_44106160"
   style="fill:#060188;fill-opacity:1"
   inkscape:connector-curvature="0" />
   <path
   d="m 1004.2183,447.14897 7.1101,0 c 3.0968,0 6.468,0.46667 6.468,4.31579 0,5.06812 -5.416,4.48833 -8.9174,4.48833 l -4.6607,-0.003 0,2.3898 5.5969,0 7.1157,11.48807 3.6116,0 -7.5201,-11.48807 c 4.4289,-0.11311 7.8652,-1.92313 7.8652,-6.81872 0,-2.10136 -0.9304,-4.31297 -2.7999,-5.36225 -1.8552,-1.10864 -3.9595,-1.2246 -6.0608,-1.2246 l -10.8376,0 0,24.89364 3.029,0 0,-22.67917 0,0 z"
   id="_42975192"
   style="fill:#060188;fill-opacity:1"
   inkscape:connector-curvature="0" />
  </g>
 </g>
<g
   transform="matrix(0.23142751,0,0,0.23142751,-250.9703,222.86937)"
   id="layer1"
   inkscape:label="Layer 1"
   style="fill:#060188;fill-opacity:1"><path
     d="m 449.33391,388.73589 18.20844,0 25.21167,40.7793 -0.0146,-40.7793 18.07712,0 0,58.47708 -18.04794,0 -25.34299,-40.77931 0,40.77931 -18.1063,0 0.0146,-58.47708"
     class="ps02"
     id="path3361"
     style="fill:#060188;fill-opacity:1;fill-rule:nonzero;stroke:none"
     inkscape:connector-curvature="0" /><path
     d="m 609.10999,394.747 17.59565,0 0,7.86406 9.51274,0 0,5.79227 -9.51274,0 0.0146,38.80964 -17.62483,0 0.0146,-38.80964 -9.55651,0 0,-5.77768 9.5711,0 -0.0146,-7.87865"
     class="ps02"
     id="path3363"
     style="fill:#060188;fill-opacity:1;fill-rule:nonzero;stroke:none"
     inkscape:connector-curvature="0" /><path
     d="m 520.88371,408.33038 17.58106,0 0,38.88259 -17.58106,0 0,-38.88259"
     class="ps02"
     id="path3365"
     style="fill:#060188;fill-opacity:1;fill-rule:nonzero;stroke:none"
     inkscape:connector-curvature="0" /><path
     d="m 520.83994,388.7213 17.62483,0 0,11.94928 -17.62483,0 0,-11.94928 z"
     class="ps02"
     id="path3367"
     style="fill:#060188;fill-opacity:1;fill-rule:nonzero;stroke:none"
     inkscape:connector-curvature="0" /><path
     d="m 836.1172,427.45798 c 0,0 -0.0146,5.87981 -0.0146,8.22881 0,6.20079 -3.66211,8.75406 -7.19292,8.75406 -3.51621,0 -7.19291,-2.55327 -7.19291,-8.75406 0,-2.349 0,-8.37471 0,-8.37471 0,0 0.0146,-5.76308 0.0146,-8.11209 0,-6.1716 3.6767,-8.71028 7.17832,-8.71028 3.51622,0 7.19292,2.53868 7.19292,8.71028 0,2.34901 0,6.71144 0.0146,8.27258 l 0,-0.0146 z m -7.0616,-21.783 c -14.19616,0 -25.70774,9.77536 -25.70774,21.82677 0,12.06601 11.51158,21.84137 25.70774,21.84137 14.19615,0 25.69314,-9.77536 25.69314,-21.84137 0,-12.05141 -11.49699,-21.82677 -25.69314,-21.82677"
     class="ps02"
     id="path3369"
     style="fill:#060188;fill-opacity:1;fill-rule:nonzero;stroke:none"
     inkscape:connector-curvature="0" /><path
     d="m 780.26633,388.73589 17.36221,0 0,58.47708 -17.39139,0 c 0,0 -0.0146,-1.89672 -0.0146,-2.24688 -6.72603,4.21654 -14.31287,4.20195 -20.23645,1.45901 -1.57573,-0.74409 -12.02223,-5.74849 -12.02223,-19.2881 0,-10.25683 9.68782,-21.47661 22.35201,-20.35317 4.17277,0.36475 7.14915,1.88212 9.95044,3.47244 0,-9.00209 0,-21.52038 0,-21.52038 z m 0.13132,38.83881 c 0,0 0,-4.88768 0,-6.94488 0,-6.02571 -4.15818,-7.55766 -6.88653,-7.55766 -2.80129,0 -6.90111,1.53195 -6.90111,7.55766 0,1.98425 0.0146,6.9157 0.0146,6.9157 0,0 -0.0146,4.8585 -0.0146,6.9303 0,5.99652 4.09982,7.57225 6.88652,7.57225 2.74294,0 6.90112,-1.57573 6.90112,-7.57225 0,-2.5095 0,-6.90112 0,-6.90112"
     class="ps02"
     id="path3371"
     style="fill:#060188;fill-opacity:1;fill-rule:nonzero;stroke:none"
     inkscape:connector-curvature="0" /><path
     d="m 579.63801,406.5212 c 6.56554,-0.17508 19.91547,4.129 19.82793,19.52155 -0.0292,2.74293 -0.0146,21.15563 -0.0146,21.15563 l -17.47893,0 c 0,0 0,-23.09612 0,-25.53266 0,-3.3849 -3.239,-7.16374 -8.02455,-7.16374 -4.80014,0 -8.34553,3.77884 -8.34553,7.16374 0,1.64868 0.0146,25.53266 0.0146,25.53266 l -17.46434,0 -0.0146,-38.88259 17.47893,-0.0146 c 0,0 -0.0292,3.13687 0,4.09981 3.35572,-3.20982 8.21422,-5.70472 14.02108,-5.87981"
     class="ps02"
     id="path3373"
     style="fill:#060188;fill-opacity:1;fill-rule:nonzero;stroke:none"
     inkscape:connector-curvature="0" /><path
     d="m 722.54794,406.5212 c 6.58013,-0.17508 19.91547,4.129 19.81334,19.52155 -0.0146,2.74293 0,21.15563 0,21.15563 l -17.46434,0 c 0,0 0,-23.09612 0,-25.53266 0,-3.3849 -3.25359,-7.16374 -8.03914,-7.16374 -4.78555,0 -8.34553,3.77884 -8.34553,7.16374 0,1.64868 0.0146,25.53266 0.0146,25.53266 l -17.46434,0 0.0146,-38.88259 17.44975,-0.0146 c 0,0 -0.0146,3.13687 0,4.09981 3.37031,-3.20982 8.21422,-5.70472 14.02108,-5.87981"
     class="ps02"
     id="path3375"
     style="fill:#060188;fill-opacity:1;fill-rule:nonzero;stroke:none"
     inkscape:connector-curvature="0" /><path
     d="m 652.60305,421.88457 c -0.0292,-3.41408 0.0438,-5.69014 1.1672,-7.63062 1.37147,-2.39277 3.89556,-3.54539 6.1862,-3.54539 l -0.0146,0 c 2.30524,0 4.82932,1.15262 6.20079,3.54539 1.10885,1.94048 1.16721,4.21654 1.13803,7.63062 l -14.67763,0 z m 14.61927,11.73043 c 0,0 0.0146,0.16049 0.0146,2.34901 0,7.11996 -4.68342,8.69569 -7.28046,8.69569 -2.59703,0 -7.3534,-1.57573 -7.3534,-8.69569 0,-2.13016 0.0146,-8.02455 0.0146,-8.02455 0,0 33.1195,0.0146 33.1195,0 0,-12.06601 -11.64289,-22.06022 -25.94118,-22.06022 -14.29829,0 -25.89741,9.77536 -25.89741,21.84137 0,12.05141 11.59912,21.82677 25.89741,21.82677 11.86174,0 21.88514,-6.7698 24.94906,-15.94697 l -17.5227,0.0146"
     class="ps02"
     id="path3377"
     style="fill:#060188;fill-opacity:1;fill-rule:nonzero;stroke:none"
     inkscape:connector-curvature="0" /></g><path
   sodipodi:type="arc"
   style="fill:#ff0a00;fill-opacity:1;fill-rule:nonzero;stroke:none"
   id="path3840"
   sodipodi:cx="155.75"
   sodipodi:cy="231.25"
   sodipodi:rx="4.25"
   sodipodi:ry="4.25"
   d="m 160,231.25 a 4.25,4.25 0 1 1 -8.5,0 4.25,4.25 0 1 1 8.5,0 z"
   transform="matrix(1.5769332,0,0,1.5769332,-372.48689,-234.3498)" /><path
   style="fill:none;stroke:#ff0a00;stroke-width:2.97865152;stroke-linecap:round;stroke-linejoin:round;stroke-miterlimit:4;stroke-opacity:1;stroke-dasharray:none"
   d="m -142.51747,41.522512 332.13004,0"
   id="path3851"
   inkscape:connector-curvature="0" /><path
   inkscape:connector-curvature="0"
   id="path3853"
   d="m -142.51747,47.479692 332.13004,0"
   style="fill:none;stroke:#4e24d0;stroke-width:2.97865152;stroke-linecap:round;stroke-linejoin:round;stroke-miterlimit:4;stroke-opacity:1;stroke-dasharray:none" /></svg>